<svg xmlns="http://www.w3.org/2000/svg" viewBox="0 0 300 300" width="300" height="300">
  <defs>
    <linearGradient id="simpleLuceeGrad" x1="0%" y1="0%" x2="0%" y2="100%">
      <stop offset="0%" style="stop-color:#00aad2;stop-opacity:1" />
      <stop offset="100%" style="stop-color:#007396;stop-opacity:1" />
    </linearGradient>
  </defs>

  <rect x="50" y="50" width="200" height="200" rx="25" fill="#f4f4f4" stroke="#e0e0e0" stroke-width="2"/>

  <g transform="translate(85, 85)">
    <path d="M120,25 L70,25 L60,5 L10,5 C4.5,5 0,9.5 0,15 L0,105 C0,110.5 4.5,115 10,115 L130,115 C135.5,115 140,110.5 140,105 L140,45 C140,34 131,25 120,25 Z" fill="url(#simpleLuceeGrad)"/>
    
    <g fill="#FFFFFF">
        <circle cx="35" cy="70" r="8" />
        <rect x="40" y="66" width="60" height="8" rx="4" />
        <circle cx="105" cy="70" r="8" />
        
        <rect x="15" y="50" width="4" height="15" transform="rotate(20 15 50)" opacity="0.7"/>
        <rect x="25" y="50" width="4" height="15" transform="rotate(20 25 50)" opacity="0.7"/>
    </g>
  </g>

  <text x="150" y="225" font-family="-apple-system, BlinkMacSystemFont, 'Segoe UI', Roboto, Helvetica, Arial, sans-serif" font-size="18" font-weight="bold" fill="#007396" text-anchor="middle">SMB/CIFS</text>
</svg>